<?xml version="1.0" encoding="utf-8"?>
<!-- Generator: Adobe Illustrator 16.0.0, SVG Export Plug-In . SVG Version: 6.00 Build 0)  -->
<!DOCTYPE svg PUBLIC "-//W3C//DTD SVG 1.1//EN" "http://www.w3.org/Graphics/SVG/1.1/DTD/svg11.dtd">
<svg version="1.1" id="Layer_1" xmlns="http://www.w3.org/2000/svg" xmlns:xlink="http://www.w3.org/1999/xlink" x="0px" y="0px"
	 width="284px" height="284px" viewBox="0 0 284 284" enable-background="new 0 0 284 284" xml:space="preserve">
<g>
	<linearGradient id="SVGID_1_" gradientUnits="userSpaceOnUse" x1="30.3066" y1="57.8477" x2="238.3081" y2="214.5608">
		<stop  offset="0" style="stop-color:#FFFFFF"/>
		<stop  offset="1" style="stop-color:#839BB5"/>
	</linearGradient>
	<path fill="url(#SVGID_1_)" d="M142,11.8C70.1,11.8,11.8,70.1,11.8,142S70.1,272.2,142,272.2S272.2,213.9,272.2,142
		S213.9,11.8,142,11.8z"/>
	<path fill="#FFFFFF" d="M142,0C63.6,0,0,63.6,0,142s63.6,142,142,142s142-63.6,142-142S220.4,0,142,0z M142,282.6
		C64.4,282.6,1.4,219.6,1.4,142S64.4,1.4,142,1.4S282.6,64.4,282.6,142S219.6,282.6,142,282.6z"/>
	<path opacity="0.3" fill="#FFFFFF" d="M142,41.9C86.7,41.9,41.9,86.7,41.9,142S86.7,242.1,142,242.1S242.1,197.3,242.1,142
		S197.3,41.9,142,41.9z"/>
	<path fill="#ECAC00" d="M142,41.9C86.7,41.9,41.9,86.7,41.9,142S86.7,242.1,142,242.1S242.1,197.3,242.1,142S197.3,41.9,142,41.9z
		 M142,240.5c-54.4,0-98.5-44.1-98.5-98.5S87.6,43.5,142,43.5s98.5,44.1,98.5,98.5S196.4,240.5,142,240.5z"/>
	<g>
		
			<radialGradient id="SVGID_2_" cx="144.6221" cy="27.7754" r="107.1948" gradientTransform="matrix(1 0 0 0.619 0 10.5822)" gradientUnits="userSpaceOnUse">
			<stop  offset="0" style="stop-color:#ECAC00"/>
			<stop  offset="0.6407" style="stop-color:#EFBB2C"/>
			<stop  offset="1" style="stop-color:#F1C140"/>
		</radialGradient>
		<path fill="url(#SVGID_2_)" d="M220.7,38.3c-21.9-16.6-49.1-26.5-78.7-26.5c-29.6,0-56.8,9.9-78.7,26.5l29.3,39.6h98.8L220.7,38.3
			z"/>
		<path fill="#FFFFFF" d="M221.3,38.7c-0.4-0.3-0.8-0.6-1.2-0.9L191,77.1H93L63.9,37.8c-0.4,0.3-0.8,0.6-1.2,0.9l29.5,39.9h99.6
			L221.3,38.7z"/>
	</g>
	<text transform="matrix(1 0 0 1 96.2998 55.3164)" fill="#FFFFFF" font-family="'Gotham-Book'" font-size="26.5">START</text>
	<g>
		<g>
			<path fill="#FFFFFF" d="M117.7,114.2c0,8.5-6.5,15.1-16,15.1H90V98.9h-0.2v0.2v-0.2h-0.2v30.6l0.1,0.2l0.2,0.1h11.9
				c4.9,0,9-1.7,11.9-4.5c2.9-2.8,4.6-6.7,4.6-11v-0.1c0-4.4-1.7-8.2-4.6-11c-2.9-2.8-7-4.4-11.9-4.4H89.8l-0.2,0.1l-0.1,0.2h0.2
				v0.2h11.9 M96.5,105h-0.2v18.4l0.1,0.2l0.2,0.1h5.2c2.8,0,5.2-0.9,6.8-2.6c1.7-1.7,2.6-4,2.6-6.8v-0.1c0-2.8-0.9-5.1-2.6-6.8
				c-1.7-1.7-4-2.6-6.8-2.6h-5.2l-0.2,0.1l-0.1,0.2H96.5v0.2h5.2c2.7,0,4.9,0.9,6.5,2.5c1.6,1.6,2.5,3.8,2.5,6.5v0.1
				c0,2.7-0.9,4.9-2.5,6.4c-1.6,1.6-3.8,2.5-6.5,2.5h-5l0-18.2H96.5v0.2V105z"/>
			<path fill="#FFFFFF" d="M123.4,129.3v-23.2h-0.2v0.2v-0.2H123v23.4l0.1,0.2l0.2,0.1h6.6l0.2-0.1l0.1-0.2v-8.7
				c0-2.8,0.7-4.8,1.8-6.1c1.2-1.3,2.9-2,5-2h0.3l0.2-0.1l0.1-0.2v-6.9c0-0.1-0.1-0.2-0.2-0.2c-0.2,0-0.3,0-0.5,0
				c-1.9,0-3.4,0.5-4.5,1.5c-1.2,0.9-2,2.3-2.7,3.8l0.2,0.1h0.2v-4.7l-0.1-0.2l-0.2-0.1h-6.6l-0.2,0.1l-0.1,0.2h0.2v0.2h6.4v4.5
				c0,0.1,0.1,0.2,0.2,0.2c0.1,0,0.2,0,0.3-0.1c0.6-1.5,1.5-2.8,2.6-3.7c1.1-0.9,2.5-1.4,4.2-1.4c0.1,0,0.3,0,0.4,0l0-0.2h-0.2v6.7
				H137c-2.2,0-4.1,0.7-5.4,2.1c-1.3,1.4-2,3.5-2,6.4"/>
			<path fill="#FFFFFF" d="M141.8,103.3v-5.7h-0.2v0.2v-0.2h-0.2v5.9l0.1,0.2l0.2,0.1h7l0.2-0.1l0.1-0.2v-5.9l-0.1-0.2l-0.2-0.1h-7
				l-0.2,0.1l-0.1,0.2h0.2v0.2h6.8 M142,129.3v-23.2h-0.2v0.2v-0.2h-0.2v23.4l0.1,0.2l0.2,0.1h6.6l0.2-0.1l0.1-0.2v-23.4l-0.1-0.2
				l-0.2-0.1h-6.6l-0.2,0.1l-0.1,0.2h0.2v0.2h6.4"/>
			<path fill="#FFFFFF" d="M161.9,129.4l-9.2-23.4l-0.2,0.1v0.2v-0.2l-0.2,0.1l9.2,23.6c0,0.1,0.1,0.1,0.2,0.1h6
				c0.1,0,0.2-0.1,0.2-0.1l9.2-23.6l0-0.2l-0.2-0.1h-6.9c-0.1,0-0.2,0.1-0.2,0.2l-5.1,15l-5-15c0-0.1-0.1-0.2-0.2-0.2h-7l-0.2,0.1
				l0,0.2l0.2-0.1v0.2h6.9l5.2,15.5c0,0.1,0.1,0.2,0.2,0.2c0.1,0,0.2-0.1,0.2-0.2l5.2-15.5h6.4"/>
			<path fill="#FFFFFF" d="M201.1,120.1l0.2,0v-0.2H185l-0.2,0.1l0,0.2c0.3,1.5,1.1,2.7,2.1,3.6c1,0.8,2.3,1.2,3.9,1.2
				c2.3,0,4-0.7,5.8-2.5l-0.2-0.2l-0.2,0.2l3.8,3.4l0.2-0.2l-0.2-0.1c-2.1,2.7-5.2,4.3-9.4,4.3c-6.9,0-12-4.8-12-11.9h-0.2h-0.2
				c0,3.6,1.3,6.7,3.5,8.9c2.2,2.2,5.3,3.4,8.9,3.4c4.3,0,7.5-1.7,9.7-4.5c0.1-0.1,0.1-0.2,0-0.3l-3.8-3.4c-0.1-0.1-0.2-0.1-0.3,0
				c-1.8,1.7-3.3,2.3-5.5,2.3c-1.4,0-2.7-0.4-3.6-1.1c-0.9-0.7-1.6-1.8-1.9-3.3l-0.2,0v0.2h16.3c0.1,0,0.2-0.1,0.2-0.2
				c0-0.6,0.1-1.2,0.1-1.8c0-3.4-0.9-6.6-2.8-9c-1.9-2.4-4.8-4-8.8-4c-3.5,0-6.4,1.4-8.5,3.7c-2.1,2.3-3.3,5.4-3.3,8.8v0.1h0.2h0.2
				v-0.1c0-6.6,4.7-12,11.3-12c3.9,0,6.6,1.5,8.5,3.8 M195,115.9l0.2,0c-0.2-1.5-0.8-2.8-1.6-3.7c-0.9-0.9-2.1-1.4-3.5-1.4
				c-1.4,0-2.6,0.5-3.5,1.4c-0.9,0.9-1.5,2.2-1.8,3.7l0,0.2l0.2,0.1h10l0.2-0.1l0.1-0.2L195,115.9v-0.2h-10v0.2l0.2,0
				c0.3-1.5,0.8-2.7,1.6-3.5c0.8-0.8,1.9-1.3,3.2-1.3c1.3,0,2.4,0.5,3.2,1.3c0.8,0.8,1.3,2,1.5,3.5L195,115.9v-0.2V115.9z"/>
			<path fill="#FFFFFF" d="M77.6,155h0.2v-0.1c0-8.6,6.4-15.6,15.7-15.6c5.7,0,9.1,1.9,11.9,4.7l0.2-0.2l-0.2-0.1l-4.3,4.9l0.2,0.1
				l0.2-0.2c-2.4-2.2-4.8-3.5-8-3.5c-2.6,0-4.9,1.1-6.5,2.9c-1.6,1.8-2.6,4.2-2.6,6.9v0.1c0,2.7,0.9,5.1,2.5,6.9
				c1.6,1.8,3.9,2.9,6.6,2.9c3.6,0,5.8-1.4,8.2-3.6l-0.2-0.2l-0.2,0.2l4.3,4.3l0.2-0.2l-0.2-0.2c-3.1,3.3-6.5,5.4-12.4,5.4
				c-8.9,0-15.5-6.8-15.5-15.5H77.6h-0.2c0,4.4,1.7,8.4,4.5,11.3c2.8,2.9,6.8,4.6,11.4,4.6c6,0,9.5-2.1,12.7-5.5
				c0.1-0.1,0.1-0.2,0-0.3l-4.3-4.3c-0.1-0.1-0.2-0.1-0.3,0c-2.4,2.2-4.5,3.5-7.9,3.5c-5.1,0-8.6-4.2-8.6-9.4v-0.1
				c0-5.1,3.6-9.3,8.6-9.3c3,0,5.3,1.3,7.7,3.4l0.2,0.1l0.2-0.1l4.3-4.9c0.1-0.1,0.1-0.2,0-0.3c-2.9-2.8-6.4-4.8-12.2-4.8
				c-4.8,0-8.8,1.8-11.7,4.7c-2.9,2.9-4.5,6.9-4.5,11.3v0.1H77.6z"/>
			<path fill="#FFFFFF" d="M121.6,170.5c-7.1,0-12.4-5.3-12.4-11.9H109h-0.2c0,3.4,1.4,6.5,3.7,8.7s5.5,3.6,9.2,3.6
				c3.7,0,6.9-1.4,9.3-3.6c2.3-2.2,3.7-5.4,3.7-8.8v-0.1c0-3.4-1.4-6.5-3.7-8.7c-2.3-2.2-5.5-3.6-9.2-3.6c-3.7,0-6.9,1.4-9.3,3.6
				c-2.3,2.2-3.7,5.4-3.7,8.8v0.1h0.2h0.2v-0.1c0-6.6,5.3-12,12.5-12c7.1,0,12.4,5.3,12.4,11.9 M127.7,158.6h0.2v-0.1
				c0-1.8-0.6-3.5-1.8-4.7c-1.1-1.2-2.7-2-4.6-2c-2,0-3.5,0.8-4.6,2s-1.7,2.9-1.7,4.6v0.1c0,1.8,0.6,3.5,1.8,4.7
				c1.1,1.2,2.7,2,4.6,2c2,0,3.5-0.8,4.6-2c1.1-1.2,1.7-2.9,1.7-4.6H127.7h-0.2c0,1.7-0.6,3.2-1.6,4.3c-1,1.1-2.5,1.8-4.3,1.8
				c-3.5,0-5.9-2.9-5.9-6.2v-0.1c0-1.7,0.6-3.2,1.6-4.3c1-1.1,2.5-1.8,4.3-1.8c3.5,0,5.9,2.9,5.9,6.2v0.1H127.7z"/>
			<path fill="#FFFFFF" d="M153,169.9l0-2.3c0-0.1-0.1-0.2-0.1-0.2c-0.1,0-0.2,0-0.3,0.1c-1.6,1.7-3.7,2.9-6.9,2.9
				c-2.2,0-4.1-0.6-5.5-1.8c-1.4-1.2-2.3-2.9-2.3-5.1h-0.2h-0.2c0,2.4,0.9,4.2,2.4,5.5c1.5,1.3,3.6,1.9,5.8,1.9c3.3,0,5.6-1.2,7.2-3
				l-0.2-0.2h-0.2v2.5l0.1,0.2l0.2,0.1h6.4l0.2-0.1l0.1-0.2v-13.6c0-3.2-0.8-5.8-2.6-7.6c-1.7-1.7-4.4-2.7-8.1-2.7
				c-4,0-6.6,0.8-9.2,1.9c-0.1,0-0.2,0.2-0.1,0.3l1.7,5.1l0.1,0.1l0.2,0c2.1-0.8,3.9-1.3,6.4-1.3c1.6,0,2.8,0.4,3.6,1.1
				s1.2,1.7,1.2,3v0.4h0.2l0.1-0.2c-1.7-0.6-3.4-1-5.8-1c-2.8,0-5.2,0.6-6.9,1.9c-1.7,1.3-2.7,3.2-2.7,5.8v0.1h0.2h0.2v-0.1
				c0-2.5,0.9-4.3,2.5-5.5c1.6-1.2,3.9-1.8,6.7-1.8c2.3,0,4,0.4,5.7,0.9l0.2,0l0.1-0.2v-0.4c0-1.4-0.4-2.6-1.3-3.3
				c-0.9-0.8-2.2-1.2-3.9-1.2c-2.6,0-4.4,0.5-6.5,1.3l0.1,0.2l0.2-0.1l-1.7-5.1l-0.2,0.1l0.1,0.2c2.6-1.1,5-1.9,9-1.9
				c3.6,0,6.1,1,7.7,2.6c1.7,1.7,2.5,4.2,2.5,7.3 M152.9,161.9h0.2v-1.2c0-0.1-0.1-0.2-0.1-0.2c-1.2-0.5-2.7-0.9-4.3-0.9
				c-1.4,0-2.6,0.3-3.5,0.9c-0.9,0.6-1.3,1.5-1.3,2.6v0.1c0,1,0.4,1.8,1.1,2.3c0.7,0.5,1.6,0.8,2.8,0.8c1.6,0,2.9-0.4,3.9-1.2
				c1-0.8,1.5-1.9,1.5-3.1H152.9h-0.2c0,1.1-0.5,2.1-1.3,2.8c-0.9,0.7-2.1,1.1-3.6,1.1c-1,0-1.9-0.3-2.5-0.7
				c-0.6-0.5-0.9-1.1-0.9-1.9v-0.1c0-1,0.4-1.7,1.1-2.2c0.7-0.5,1.8-0.8,3.2-0.8c1.6,0,3,0.3,4.1,0.9l0.1-0.2h-0.2v1.2H152.9z"/>
			<path fill="#FFFFFF" d="M176,170.5c-6.9,0-12-5.3-12-11.9h-0.2h-0.2c0,3.4,1.3,6.5,3.5,8.7c2.2,2.2,5.3,3.6,8.9,3.6
				c4.7,0,7.4-1.8,9.7-4.4c0.1-0.1,0.1-0.2,0-0.3l-3.9-3.9c-0.1-0.1-0.2-0.1-0.3,0c-1.6,1.5-3.1,2.4-5.2,2.4c-1.8,0-3.2-0.7-4.2-1.8
				c-1-1.1-1.6-2.7-1.6-4.4v-0.1c0-1.7,0.6-3.2,1.5-4.3c1-1.1,2.3-1.8,3.9-1.8c2.3,0,3.7,1,5.2,2.5l0.2,0.1l0.2-0.1l4.1-4.4
				c0.1-0.1,0.1-0.2,0-0.3c-2.2-2.5-5.1-4-9.5-4c-3.6,0-6.8,1.4-9,3.7c-2.2,2.3-3.5,5.4-3.5,8.8v0.1h0.2h0.2v-0.1c0-6.6,5-12,12-12
				c4.4,0,7,1.5,9.2,3.9l0.2-0.2l-0.2-0.2l-4.1,4.4l0.2,0.2l0.2-0.2c-1.5-1.6-3.1-2.7-5.5-2.6c-1.7,0-3.2,0.8-4.3,2
				s-1.6,2.9-1.6,4.6v0.1c0,1.8,0.6,3.5,1.7,4.7c1.1,1.2,2.6,2,4.5,2c2.3,0,3.9-1,5.5-2.6l-0.2-0.2l-0.2,0.2"/>
			<path fill="#FFFFFF" d="M190.1,169.9v-31.7h-0.2v0.2v-0.2h-0.2v31.9l0.1,0.2l0.2,0.1h6.6l0.2-0.1l0.1-0.2v-13.1
				c0-1.5,0.4-2.7,1.1-3.4c0.7-0.7,1.6-1.1,2.9-1.1c1.2,0,2.1,0.4,2.8,1.1c0.6,0.7,1,1.9,1,3.4v13.1l0.1,0.2l0.2,0.1h6.6l0.2-0.1
				l0.1-0.2V155c0-2.7-0.7-5-2.2-6.5c-1.4-1.6-3.5-2.4-6-2.4c-3.5,0-5.5,1.9-7,3.8l0.2,0.1h0.2v-11.8l-0.1-0.2l-0.2-0.1h-6.6
				l-0.2,0.1l-0.1,0.2h0.2v0.2h6.4v11.6c0,0.1,0.1,0.2,0.2,0.2c0.1,0,0.2,0,0.3-0.1c1.5-1.9,3.4-3.7,6.7-3.7c2.5,0,4.4,0.8,5.7,2.3
				c1.3,1.4,2,3.6,2,6.2v14.9h-6.2l0-12.8c0-1.6-0.4-2.9-1.1-3.7c-0.7-0.9-1.8-1.3-3.1-1.3c-1.3,0-2.4,0.4-3.2,1.3s-1.2,2.1-1.2,3.7
				"/>
		</g>
		<path fill="#002663" d="M89.6,98.7h11.9c9.6,0,16.3,6.6,16.3,15.2v0.1c0,8.6-6.6,15.3-16.3,15.3H89.6V98.7z M96.3,104.7v18.4h5.2
			c5.5,0,9.2-3.7,9.2-9.1V114c0-5.4-3.7-9.2-9.2-9.2H96.3z"/>
		<path fill="#002663" d="M123,105.8h6.6v4.7c1.4-3.2,3.5-5.3,7.5-5.2v6.9h-0.3c-4.4,0-7.1,2.7-7.1,8.3v8.6H123V105.8z"/>
		<path fill="#002663" d="M141.4,97.4h7v5.9h-7V97.4z M141.6,105.8h6.6v23.4h-6.6V105.8z"/>
		<path fill="#002663" d="M152.4,105.8h7l5.2,15.7l5.3-15.7h6.9l-9.2,23.6h-6L152.4,105.8z"/>
		<path fill="#002663" d="M178.3,117.7L178.3,117.7c0-6.8,4.8-12.3,11.6-12.3c7.8,0,11.4,6.1,11.4,12.7c0,0.5,0,1.1-0.1,1.7h-16.3
			c0.7,3,2.8,4.6,5.7,4.6c2.2,0,3.8-0.7,5.7-2.4l3.8,3.4c-2.2,2.7-5.3,4.4-9.6,4.4C183.5,129.8,178.3,124.8,178.3,117.7z
			 M194.8,115.7c-0.4-3-2.1-5-4.9-5c-2.8,0-4.5,2-5.1,5H194.8z"/>
		<path fill="#002663" d="M77.5,154.7L77.5,154.7c0-8.8,6.6-15.9,15.9-15.9c5.8,0,9.2,1.9,12.1,4.7l-4.3,4.9
			c-2.4-2.1-4.8-3.5-7.8-3.5c-5.2,0-8.9,4.3-8.9,9.5v0.1c0,5.2,3.6,9.6,8.9,9.6c3.5,0,5.6-1.4,8-3.6l4.3,4.3
			c-3.1,3.4-6.6,5.5-12.5,5.5C84.1,170.5,77.5,163.5,77.5,154.7z"/>
		<path fill="#002663" d="M108.8,158.4L108.8,158.4c0-6.8,5.4-12.3,12.7-12.3c7.3,0,12.6,5.4,12.6,12.1v0.1
			c0,6.7-5.4,12.2-12.7,12.2C114.2,170.5,108.8,165.1,108.8,158.4z M127.6,158.4L127.6,158.4c0-3.5-2.5-6.6-6.2-6.6
			c-3.8,0-6.1,2.9-6.1,6.4v0.1c0,3.5,2.5,6.5,6.2,6.5C125.3,164.7,127.6,161.8,127.6,158.4z"/>
		<path fill="#002663" d="M137.5,163.2L137.5,163.2c0-5.2,3.9-7.6,9.4-7.6c2.4,0,4.1,0.4,5.7,1v-0.4c0-2.8-1.7-4.3-5-4.3
			c-2.5,0-4.3,0.5-6.5,1.3l-1.7-5.1c2.6-1.1,5.1-1.9,9.1-1.9c3.6,0,6.2,1,7.9,2.6c1.7,1.7,2.5,4.3,2.5,7.5v13.6h-6.4v-2.5
			c-1.6,1.8-3.8,3-7.1,3C141.2,170.4,137.5,167.8,137.5,163.2z M152.8,161.7v-1.2c-1.1-0.5-2.6-0.9-4.2-0.9c-2.8,0-4.6,1.1-4.6,3.2
			v0.1c0,1.8,1.5,2.8,3.6,2.8C150.7,165.8,152.8,164.1,152.8,161.7z"/>
		<path fill="#002663" d="M163.7,158.4L163.7,158.4c0-6.8,5.1-12.3,12.3-12.3c4.4,0,7.2,1.5,9.3,3.9l-4.1,4.4
			c-1.5-1.6-3-2.6-5.3-2.6c-3.3,0-5.7,2.9-5.7,6.4v0.1c0,3.6,2.3,6.5,5.9,6.5c2.2,0,3.8-1,5.4-2.5l3.9,3.9c-2.3,2.5-4.9,4.3-9.6,4.3
			C168.8,170.5,163.7,165,163.7,158.4z"/>
		<path fill="#002663" d="M189.7,138h6.6v11.8c1.5-2,3.5-3.8,6.9-3.8c5,0,8,3.3,8,8.7v15.2h-6.6v-13.1c0-3.1-1.5-4.8-4-4.8
			c-2.5,0-4.1,1.6-4.1,4.8v13.1h-6.6V138z"/>
	</g>
</g>
<g>
	<g>
		
			<path fill="none" stroke="#FFFFFF" stroke-width="0.4" stroke-linecap="round" stroke-linejoin="round" stroke-miterlimit="10" d="
			M110,201.1c1.7-0.7,3.5-2.1,3.5-4.8v-0.1c0-1.3-0.5-2.3-1.3-3.2c-1.1-1.1-3-1.8-5.3-1.8h-8.4v20.3h8.8c4.4,0,7.3-2.1,7.3-5.5V206
			C114.6,203.2,112.4,201.8,110,201.1z M107.4,210.2H100V202h6.9c4,0,6.2,1.5,6.2,3.9v0.1C113,208.6,110.8,210.2,107.4,210.2z
			 M100,200.6v-8h6.8c3.2,0,5.1,1.5,5.1,3.7v0.1c0,2.7-2.2,4.2-5.2,4.2H100z"/>
		
			<path fill="none" stroke="#FFFFFF" stroke-width="0.4" stroke-linecap="round" stroke-linejoin="round" stroke-miterlimit="10" d="
			M127.1,191.1l-9.5,20.5h1.6l2.6-5.7h12l2.6,5.7h1.7l-9.5-20.5H127.1z M122.5,204.5l5.4-11.7l5.3,11.7H122.5z"/>
		
			<path fill="none" stroke="#FFFFFF" stroke-width="0.4" stroke-linecap="round" stroke-linejoin="round" stroke-miterlimit="10" d="
			M148.8,200.7c-4.8-1-5.9-2.3-5.9-4.4v-0.1c0-2.1,2-3.8,5-3.8c2.2,0,4.1,0.6,6.1,2.3l1-1.2c-2.1-1.7-4-2.5-7-2.5
			c-3.8,0-6.5,2.3-6.5,5.3v0.1c0,3.1,2,4.7,6.8,5.7c4.6,0.9,5.7,2.2,5.7,4.3v0.1c0,2.3-2.1,4-5.1,4c-3,0-5-1-7.3-3l-1,1.1
			c2.4,2.2,4.9,3.2,8.2,3.2c3.9,0,6.7-2.3,6.7-5.5v-0.1C155.5,203.3,153.5,201.6,148.8,200.7z"/>
		
			<rect x="160.7" y="191.3" fill="none" stroke="#FFFFFF" stroke-width="0.4" stroke-linecap="round" stroke-linejoin="round" stroke-miterlimit="10" width="1.5" height="20.3"/>
		
			<path fill="none" stroke="#FFFFFF" stroke-width="0.4" stroke-linecap="round" stroke-linejoin="round" stroke-miterlimit="10" d="
			M184.6,207.4c-2.1,2-4.1,3.2-7,3.2c-4.8,0-8.6-4-8.6-9.1v-0.1c0-5.1,3.7-9.1,8.6-9.1c3,0,5.1,1.3,6.8,3l1.1-1.1
			c-2.1-1.9-4.3-3.2-7.9-3.2c-5.9,0-10.2,4.8-10.2,10.5v0.1c0,5.8,4.3,10.4,10.1,10.4c3.6,0,5.9-1.4,8.1-3.5L184.6,207.4z"/>
	</g>
	<g>
		<path fill="#002663" d="M98.3,191.1h8.4c2.3,0,4.1,0.7,5.3,1.8c0.8,0.8,1.3,1.9,1.3,3.2v0.1c0,2.8-1.8,4.1-3.5,4.8
			c2.4,0.6,4.6,2,4.6,4.8v0.1c0,3.4-2.9,5.5-7.3,5.5h-8.8V191.1z M111.8,196.3c0-2.2-1.8-3.7-5.1-3.7h-6.8v8h6.7
			C109.6,200.5,111.8,199,111.8,196.3L111.8,196.3z M106.7,201.9h-6.9v8.2h7.4c3.5,0,5.7-1.6,5.7-4.1v-0.1
			C112.9,203.3,110.7,201.9,106.7,201.9z"/>
		<path fill="#002663" d="M127,191h1.5l9.5,20.5h-1.7l-2.6-5.7h-12l-2.6,5.7h-1.6L127,191z M133,204.4l-5.3-11.7l-5.4,11.7H133z"/>
		<path fill="#002663" d="M140.5,208.5l1-1.1c2.2,2.1,4.3,3,7.3,3c3,0,5.1-1.7,5.1-4v-0.1c0-2.1-1.1-3.4-5.7-4.3
			c-4.9-1-6.8-2.6-6.8-5.7v-0.1c0-3,2.8-5.3,6.5-5.3c3,0,4.9,0.8,7,2.5l-1,1.2c-1.9-1.7-3.8-2.3-6.1-2.3c-3,0-5,1.7-5,3.8v0.1
			c0,2.1,1.1,3.5,5.9,4.4c4.7,1,6.7,2.6,6.7,5.6v0.1c0,3.3-2.8,5.5-6.7,5.5C145.4,211.7,142.9,210.6,140.5,208.5z"/>
		<path fill="#002663" d="M160.5,191.1h1.5v20.3h-1.5V191.1z"/>
		<path fill="#002663" d="M167.4,201.3L167.4,201.3c0-5.8,4.3-10.6,10.2-10.6c3.6,0,5.8,1.3,7.9,3.2l-1.1,1.1c-1.8-1.7-3.8-3-6.8-3
			c-4.9,0-8.6,4-8.6,9.1v0.1c0,5.1,3.7,9.1,8.6,9.1c2.9,0,4.9-1.1,7-3.2l1,1c-2.1,2.1-4.5,3.5-8.1,3.5
			C171.7,211.8,167.4,207.2,167.4,201.3z"/>
	</g>
</g>
</svg>
