<?xml version="1.0" encoding="utf-8"?>
<!-- Generator: Adobe Illustrator 16.0.0, SVG Export Plug-In . SVG Version: 6.00 Build 0)  -->
<!DOCTYPE svg PUBLIC "-//W3C//DTD SVG 1.1//EN" "http://www.w3.org/Graphics/SVG/1.1/DTD/svg11.dtd">
<svg version="1.1" id="Layer_1" xmlns="http://www.w3.org/2000/svg" xmlns:xlink="http://www.w3.org/1999/xlink" x="0px" y="0px"
	 width="284px" height="284px" viewBox="0 0 284 284" enable-background="new 0 0 284 284" xml:space="preserve">
<g>
	<linearGradient id="SVGID_1_" gradientUnits="userSpaceOnUse" x1="30.3062" y1="57.8477" x2="238.3076" y2="214.5608">
		<stop  offset="0" style="stop-color:#FFFFFF"/>
		<stop  offset="1" style="stop-color:#839BB5"/>
	</linearGradient>
	<path fill="url(#SVGID_1_)" d="M142,11.8C70.1,11.8,11.8,70.1,11.8,142S70.1,272.2,142,272.2S272.2,213.9,272.2,142
		S213.9,11.8,142,11.8z"/>
	<path fill="#FFFFFF" d="M142,0C63.6,0,0,63.6,0,142s63.6,142,142,142s142-63.6,142-142S220.4,0,142,0z M142,282.6
		C64.4,282.6,1.4,219.6,1.4,142S64.4,1.4,142,1.4S282.6,64.4,282.6,142S219.6,282.6,142,282.6z"/>
	<path opacity="0.3" fill="#FFFFFF" d="M142,41.9C86.7,41.9,41.9,86.7,41.9,142S86.7,242.1,142,242.1S242.1,197.3,242.1,142
		S197.3,41.9,142,41.9z"/>
	<path fill="#ECAC00" d="M142,41.9C86.7,41.9,41.9,86.7,41.9,142S86.7,242.1,142,242.1S242.1,197.3,242.1,142S197.3,41.9,142,41.9z
		 M142,240.5c-54.4,0-98.5-44.1-98.5-98.5S87.6,43.5,142,43.5s98.5,44.1,98.5,98.5S196.4,240.5,142,240.5z"/>
	<g>
		
			<radialGradient id="SVGID_2_" cx="144.623" cy="27.7754" r="107.1939" gradientTransform="matrix(1 0 0 0.619 0 10.5822)" gradientUnits="userSpaceOnUse">
			<stop  offset="0" style="stop-color:#ECAC00"/>
			<stop  offset="0.6407" style="stop-color:#EFBB2C"/>
			<stop  offset="1" style="stop-color:#F1C140"/>
		</radialGradient>
		<path fill="url(#SVGID_2_)" d="M220.7,38.3c-21.9-16.6-49.1-26.5-78.7-26.5c-29.6,0-56.8,9.9-78.7,26.5l29.3,39.6h98.8L220.7,38.3
			z"/>
		<path fill="#FFFFFF" d="M221.3,38.7c-0.4-0.3-0.8-0.6-1.2-0.9L191,77.1H93L63.9,37.8c-0.4,0.3-0.8,0.6-1.2,0.9l29.5,39.9h99.6
			L221.3,38.7z"/>
	</g>
	<text transform="matrix(1 0 0 1 96.2998 55.3164)" fill="#FFFFFF" font-family="'Gotham-Book'" font-size="26.5">START</text>
	<g>
		<g>
			<path fill="#FFFFFF" d="M112.6,121.8c0,9.3-7.2,16.5-17.6,16.6H82.1V105h-0.2v0.2V105h-0.2v33.6l0.1,0.2l0.2,0.1H95
				c5.3,0,9.9-1.9,13.1-4.9c3.2-3.1,5-7.3,5-12.1v-0.1c0-4.8-1.9-9-5-12.1s-7.7-4.9-13.1-4.9H81.8l-0.2,0.1l-0.1,0.2h0.2v0.2H95
				 M89.2,111.6H89v20.3l0.1,0.2l0.2,0.1H95c3.1,0,5.7-1,7.5-2.9s2.9-4.4,2.9-7.4v-0.1c0-3-1-5.6-2.9-7.5c-1.8-1.8-4.4-2.9-7.5-2.9
				h-5.7l-0.2,0.1l-0.1,0.2H89.2v0.2H95c3,0,5.4,1,7.2,2.8c1.7,1.7,2.7,4.2,2.7,7.1v0.1c0,2.9-1,5.4-2.7,7.1
				c-1.7,1.7-4.2,2.7-7.2,2.7h-5.5l0-20H89.2v0.2V111.6z"/>
			<path fill="#FFFFFF" d="M118.9,138.3v-25.5h-0.2v0.2v-0.2h-0.2v25.7l0.1,0.2l0.2,0.1h7.3l0.2-0.1l0.1-0.2v-9.5c0-3,0.7-5.2,2-6.7
				c1.3-1.4,3.2-2.1,5.5-2.1h0.4l0.2-0.1l0.1-0.2v-7.6c0-0.1-0.1-0.2-0.2-0.2c-0.2,0-0.3,0-0.5,0c-2.1,0-3.7,0.6-5,1.6
				c-1.3,1-2.2,2.5-3,4.2l0.2,0.1h0.2v-5.2l-0.1-0.2l-0.2-0.1h-7.3l-0.2,0.1l-0.1,0.2h0.2v0.2h7v4.9c0,0.1,0.1,0.2,0.2,0.2
				c0.1,0,0.2,0,0.3-0.1c0.7-1.7,1.6-3.1,2.8-4c1.2-1,2.7-1.5,4.7-1.5c0.2,0,0.3,0,0.5,0l0-0.2h-0.2v7.4h-0.1
				c-2.5,0-4.5,0.8-5.9,2.3s-2.2,3.9-2.2,7"/>
			<path fill="#FFFFFF" d="M139.1,109.8v-6.2h-0.2v0.2v-0.2h-0.2v6.5l0.1,0.2l0.2,0.1h7.7l0.2-0.1l0.1-0.2v-6.5l-0.1-0.2l-0.2-0.1
				h-7.7l-0.2,0.1l-0.1,0.2h0.2v0.2h7.4 M139.3,138.3v-25.5H139v0.2v-0.2h-0.2v25.7l0.1,0.2l0.2,0.1h7.3l0.2-0.1l0.1-0.2v-25.7
				l-0.1-0.2l-0.2-0.1H139l-0.2,0.1l-0.1,0.2h0.2v0.2h7"/>
			<path fill="#FFFFFF" d="M161.2,138.5l-10.1-25.8l-0.2,0.1v0.2v-0.2l-0.2,0.1l10.1,25.9c0,0.1,0.1,0.2,0.2,0.2h6.6
				c0.1,0,0.2-0.1,0.2-0.2l10.1-25.9l0-0.2l-0.2-0.1h-7.6c-0.1,0-0.2,0.1-0.2,0.2l-5.6,16.5l-5.5-16.5c0-0.1-0.1-0.2-0.2-0.2h-7.7
				l-0.2,0.1l0,0.2l0.2-0.1v0.2h7.5l5.7,17.1c0,0.1,0.1,0.2,0.2,0.2c0.1,0,0.2-0.1,0.2-0.2l5.8-17.1h7"/>
			<path fill="#FFFFFF" d="M204.2,128.2l0.2,0V128h-17.9l-0.2,0.1l0,0.2c0.4,1.7,1.2,3,2.3,3.9c1.1,0.9,2.6,1.3,4.3,1.3
				c2.5,0,4.4-0.8,6.4-2.7l-0.2-0.2l-0.2,0.2l4.2,3.7l0.2-0.2l-0.2-0.2c-2.4,2.9-5.7,4.7-10.3,4.7c-7.6,0-13.2-5.3-13.2-13h-0.2H179
				c0,4,1.5,7.4,3.9,9.8c2.4,2.4,5.9,3.8,9.8,3.8c4.7,0,8.3-1.9,10.7-4.9c0.1-0.1,0.1-0.3,0-0.3l-4.2-3.7c-0.1-0.1-0.2-0.1-0.3,0
				c-2,1.8-3.7,2.6-6.1,2.6c-1.6,0-2.9-0.4-3.9-1.2c-1-0.8-1.7-2-2.1-3.6l-0.2,0.1v0.2h17.9c0.1,0,0.2-0.1,0.2-0.2
				c0-0.7,0.1-1.3,0.1-1.9c0-3.7-1-7.2-3.1-9.9c-2.1-2.6-5.3-4.3-9.7-4.3c-3.8,0-7.1,1.5-9.4,4c-2.3,2.5-3.6,5.9-3.6,9.6v0.1h0.2
				h0.2v-0.1c0-7.2,5.1-13.1,12.5-13.1c4.2,0,7.3,1.6,9.3,4.2 M197.4,123.7l0.2,0c-0.2-1.7-0.8-3.1-1.8-4.1c-1-1-2.3-1.6-3.9-1.6
				c-1.6,0-2.9,0.6-3.9,1.6c-1,1-1.6,2.4-1.9,4.1l0.1,0.2l0.2,0.1h11l0.2-0.1l0.1-0.2L197.4,123.7v-0.2h-11v0.2l0.2,0
				c0.3-1.6,0.9-2.9,1.8-3.8c0.9-0.9,2.1-1.4,3.5-1.4c1.5,0,2.6,0.5,3.5,1.4c0.9,0.9,1.4,2.2,1.7,3.8L197.4,123.7v-0.2V123.7z"/>
			<path fill="#FFFFFF" d="M68.5,169.9h0.2v-0.1c0-9.4,7.1-17.1,17.3-17.1c6.3,0,10,2.1,13.1,5.1l0.2-0.2l-0.2-0.2l-4.7,5.4l0.2,0.2
				l0.2-0.2c-2.6-2.4-5.3-3.9-8.8-3.9c-2.9,0-5.4,1.2-7.2,3.2c-1.8,1.9-2.8,4.6-2.8,7.6v0.1c0,2.9,1,5.6,2.8,7.6
				c1.8,2,4.3,3.2,7.2,3.2c3.9,0,6.4-1.6,9-4l-0.2-0.2l-0.2,0.2l4.7,4.8l0.2-0.2l-0.2-0.2c-3.4,3.7-7.2,5.9-13.6,5.9
				c-9.8,0-17-7.5-17-17H68.5h-0.2c0,4.9,1.9,9.3,5,12.4c3.1,3.2,7.5,5.1,12.5,5.1c6.5,0,10.5-2.4,14-6.1c0.1-0.1,0.1-0.3,0-0.3
				l-4.7-4.8c-0.1-0.1-0.2-0.1-0.3,0c-2.6,2.4-4.9,3.9-8.7,3.9c-5.6,0-9.5-4.7-9.5-10.3v-0.1c0-5.6,4-10.2,9.5-10.2
				c3.3,0,5.9,1.4,8.4,3.7l0.2,0.1l0.2-0.1l4.7-5.4c0.1-0.1,0.1-0.2,0-0.3c-3.1-3.1-7-5.3-13.4-5.3c-5.2,0-9.7,2-12.8,5.2
				c-3.1,3.2-5,7.6-5,12.4v0.1H68.5z"/>
			<path fill="#FFFFFF" d="M116.8,186.9c-7.8,0-13.6-5.8-13.6-13h-0.2h-0.2c0,3.8,1.5,7.2,4,9.6c2.5,2.4,6.1,3.9,10.1,3.9
				c4.1,0,7.6-1.5,10.2-4s4.1-5.9,4.1-9.6v-0.1c0-3.8-1.5-7.2-4-9.6c-2.5-2.4-6.1-3.9-10.1-3.9c-4.1,0-7.6,1.5-10.2,4
				c-2.5,2.5-4.1,5.9-4.1,9.6v0.1h0.2h0.2v-0.1c0-7.3,5.8-13.1,13.7-13.1c7.8,0,13.6,5.8,13.6,13 M123.6,173.9h0.2v-0.1
				c0-2-0.7-3.8-1.9-5.1c-1.2-1.4-3-2.2-5.1-2.2c-2.2,0-3.9,0.8-5.1,2.2c-1.2,1.3-1.8,3.1-1.8,5.1v0.1c0,2,0.7,3.8,1.9,5.1
				c1.2,1.4,3,2.2,5.1,2.2c2.2,0,3.9-0.8,5.1-2.2c1.2-1.3,1.8-3.1,1.8-5.1H123.6h-0.2c0,1.8-0.6,3.5-1.7,4.8c-1.1,1.2-2.7,2-4.7,2
				c-3.9,0-6.5-3.2-6.5-6.9v-0.1c0-1.8,0.6-3.5,1.7-4.8c1.1-1.2,2.7-2,4.7-2c3.9,0,6.5,3.2,6.5,6.9v0.1H123.6z"/>
			<path fill="#FFFFFF" d="M151.4,186.3l0-2.5c0-0.1-0.1-0.2-0.2-0.2s-0.2,0-0.3,0.1c-1.7,1.9-4.1,3.2-7.6,3.2c-2.4,0-4.5-0.7-6.1-2
				c-1.5-1.3-2.5-3.2-2.5-5.7h-0.2h-0.2c0,2.6,1,4.7,2.7,6c1.7,1.4,3.9,2.1,6.4,2.1c3.6,0,6.1-1.3,8-3.3l-0.2-0.2h-0.2v2.8l0.1,0.2
				l0.2,0.1h7.1l0.2-0.1l0.1-0.2v-14.9c0-3.5-0.9-6.4-2.9-8.4c-1.9-1.9-4.8-3-8.9-3c-4.4,0-7.2,0.8-10.1,2.1
				c-0.1,0.1-0.2,0.2-0.1,0.3l1.8,5.6l0.1,0.1l0.2,0c2.3-0.9,4.3-1.4,7-1.4c1.8,0,3.1,0.4,4,1.2c0.9,0.7,1.3,1.8,1.3,3.3v0.4h0.2
				l0.1-0.2c-1.8-0.6-3.8-1.1-6.4-1.1c-3.1,0-5.7,0.7-7.6,2c-1.9,1.4-3,3.5-3,6.4v0.1h0.2h0.2v-0.1c0-2.7,1-4.7,2.8-6
				c1.8-1.3,4.3-2,7.3-1.9c2.6,0,4.4,0.4,6.2,1l0.2,0l0.1-0.2v-0.4c0-1.6-0.5-2.8-1.5-3.7c-1-0.9-2.4-1.3-4.3-1.3
				c-2.8,0-4.8,0.5-7.2,1.4l0.1,0.2l0.2-0.1l-1.8-5.6l-0.2,0.1l0.1,0.2c2.8-1.2,5.5-2,9.9-2c3.9,0,6.8,1,8.5,2.8
				c1.9,1.9,2.7,4.6,2.7,8 M151.3,177.5h0.2v-1.3c0-0.1-0.1-0.2-0.1-0.2c-1.3-0.6-2.9-1-4.8-1c-1.6,0-2.9,0.3-3.8,1
				c-0.9,0.6-1.5,1.6-1.5,2.8v0.1c0,1.1,0.4,1.9,1.2,2.5c0.8,0.6,1.8,0.9,3,0.9c1.7,0,3.2-0.5,4.3-1.3c1.1-0.8,1.7-2,1.7-3.4H151.3
				H151c0,1.2-0.5,2.3-1.5,3.1c-0.9,0.8-2.3,1.2-4,1.2c-1.1,0-2.1-0.3-2.7-0.8c-0.6-0.5-1-1.2-1-2.1v-0.1c0-1.1,0.4-1.9,1.2-2.4
				c0.8-0.6,2-0.9,3.5-0.9c1.7,0,3.3,0.4,4.6,0.9l0.1-0.2H151v1.3H151.3z"/>
			<path fill="#FFFFFF" d="M176.6,186.9c-7.6,0-13.1-5.8-13.1-13h-0.2H163c0,3.7,1.4,7.1,3.9,9.6c2.4,2.5,5.8,4,9.8,4
				c5.2,0,8.2-2,10.7-4.8c0.1-0.1,0.1-0.2,0-0.3l-4.3-4.3c-0.1-0.1-0.3-0.1-0.3,0c-1.8,1.7-3.4,2.7-5.7,2.7c-1.9,0-3.5-0.8-4.6-2
				c-1.1-1.2-1.7-2.9-1.7-4.9v-0.1c0-1.8,0.6-3.5,1.7-4.8c1.1-1.2,2.6-2,4.3-2c2.5,0,4.1,1,5.7,2.8l0.2,0.1l0.2-0.1l4.5-4.8
				c0.1-0.1,0.1-0.2,0-0.3c-2.4-2.7-5.6-4.4-10.5-4.4c-4,0-7.4,1.5-9.9,4s-3.9,5.9-3.9,9.6v0.1h0.2h0.2v-0.1
				c0-7.2,5.5-13.1,13.2-13.1c4.8,0,7.7,1.6,10.1,4.2l0.2-0.2l-0.2-0.2l-4.5,4.8l0.2,0.2l0.2-0.2c-1.6-1.8-3.4-2.9-6-2.9
				c-1.9,0-3.5,0.8-4.7,2.2c-1.1,1.3-1.8,3.1-1.8,5.1v0.1c0,2,0.7,3.9,1.8,5.2c1.2,1.3,2.9,2.2,4.9,2.2c2.5,0,4.3-1.1,6.1-2.8
				l-0.2-0.2l-0.2,0.2"/>
			<path fill="#FFFFFF" d="M192.1,186.3v-34.8h-0.2v0.2v-0.2h-0.2v35l0.1,0.2l0.2,0.1h7.3l0.2-0.1l0.1-0.2v-14.4
				c0-1.7,0.4-2.9,1.2-3.7c0.7-0.8,1.8-1.2,3.1-1.2c1.3,0,2.4,0.4,3.1,1.2c0.7,0.8,1.1,2.1,1.1,3.8v14.4l0.1,0.2l0.2,0.1h7.3
				l0.2-0.1l0.1-0.2v-16.7c0-3-0.8-5.5-2.4-7.2c-1.5-1.7-3.8-2.6-6.6-2.6c-3.8,0-6,2-7.7,4.2l0.2,0.2h0.2v-13l-0.1-0.2l-0.2-0.1
				h-7.3l-0.2,0.1l-0.1,0.2h0.2v0.2h7v12.7c0,0.1,0.1,0.2,0.2,0.2s0.2,0,0.3-0.1c1.7-2.1,3.7-4,7.3-4c2.7,0,4.8,0.9,6.3,2.5
				c1.4,1.6,2.2,3.9,2.2,6.8v16.4h-6.8l0-14.1c0-1.8-0.4-3.1-1.2-4.1c-0.8-0.9-2-1.4-3.4-1.4c-1.4,0-2.7,0.5-3.5,1.4
				c-0.8,0.9-1.3,2.3-1.3,4.1"/>
		</g>
		<g>
			<path fill="#002663" d="M81.7,104.7h13.1c10.6,0,17.9,7.2,17.9,16.7v0.1c0,9.5-7.3,16.8-17.9,16.8H81.7V104.7z M89.1,111.4v20.3
				h5.7c6,0,10.1-4.1,10.1-10v-0.1c0-6-4.1-10.1-10.1-10.1H89.1z"/>
			<path fill="#002663" d="M118.4,112.6h7.3v5.2c1.5-3.6,3.9-5.9,8.2-5.7v7.6h-0.4c-4.8,0-7.8,2.9-7.8,9.1v9.5h-7.3V112.6z"/>
			<path fill="#002663" d="M138.6,103.3h7.7v6.5h-7.7V103.3z M138.8,112.6h7.3v25.7h-7.3V112.6z"/>
			<path fill="#002663" d="M150.7,112.6h7.7l5.8,17.2l5.8-17.2h7.6l-10.1,25.9h-6.6L150.7,112.6z"/>
			<path fill="#002663" d="M179.1,125.6L179.1,125.6c0-7.4,5.2-13.5,12.7-13.5c8.6,0,12.5,6.7,12.5,14c0,0.6,0,1.2-0.1,1.9h-17.9
				c0.7,3.3,3,5,6.3,5c2.4,0,4.2-0.8,6.2-2.6l4.2,3.7c-2.4,3-5.9,4.8-10.5,4.8C184.8,138.9,179.1,133.5,179.1,125.6z M197.2,123.4
				c-0.4-3.3-2.4-5.5-5.4-5.5c-3,0-5,2.2-5.6,5.5H197.2z"/>
			<path fill="#002663" d="M68.3,169.6L68.3,169.6c0-9.6,7.2-17.5,17.5-17.5c6.3,0,10.1,2.1,13.2,5.2l-4.7,5.4
				c-2.6-2.4-5.2-3.8-8.6-3.8c-5.7,0-9.7,4.7-9.7,10.5v0.1c0,5.8,4,10.6,9.7,10.6c3.8,0,6.2-1.5,8.8-3.9l4.7,4.8
				c-3.5,3.7-7.3,6-13.8,6C75.7,186.9,68.3,179.3,68.3,169.6z"/>
			<path fill="#002663" d="M102.8,173.6L102.8,173.6c0-7.5,6-13.5,14-13.5c8,0,13.9,5.9,13.9,13.3v0.1c0,7.4-6,13.4-14,13.4
				C108.7,186.9,102.8,181,102.8,173.6z M123.4,173.6L123.4,173.6c0-3.9-2.7-7.2-6.8-7.2c-4.2,0-6.7,3.2-6.7,7v0.1
				c0,3.8,2.7,7.1,6.8,7.1C120.9,180.6,123.4,177.4,123.4,173.6z"/>
			<path fill="#002663" d="M134.3,178.9L134.3,178.9c0-5.7,4.3-8.3,10.4-8.3c2.6,0,4.5,0.4,6.3,1.1v-0.4c0-3-1.9-4.7-5.5-4.7
				c-2.8,0-4.8,0.5-7.1,1.4l-1.8-5.6c2.8-1.2,5.6-2.1,10-2.1c4,0,6.9,1.1,8.7,2.9c1.9,1.9,2.8,4.8,2.8,8.2v14.9h-7.1v-2.8
				c-1.8,2-4.2,3.3-7.8,3.3C138.3,186.8,134.3,184,134.3,178.9z M151.1,177.2v-1.3c-1.2-0.6-2.9-1-4.7-1c-3.1,0-5,1.2-5,3.6v0.1
				c0,2,1.6,3.1,4,3.1C148.8,181.8,151.1,179.9,151.1,177.2z"/>
			<path fill="#002663" d="M163,173.6L163,173.6c0-7.4,5.6-13.5,13.5-13.5c4.8,0,7.9,1.6,10.3,4.3l-4.5,4.8
				c-1.6-1.7-3.3-2.8-5.9-2.8c-3.6,0-6.2,3.2-6.2,7v0.1c0,3.9,2.5,7.1,6.5,7.1c2.4,0,4.1-1.1,5.9-2.7l4.3,4.3
				c-2.5,2.7-5.4,4.7-10.5,4.7C168.7,186.9,163,180.9,163,173.6z"/>
			<path fill="#002663" d="M191.7,151.3h7.3v13c1.7-2.2,3.8-4.1,7.5-4.1c5.5,0,8.7,3.6,8.7,9.6v16.7H208V172c0-3.5-1.6-5.2-4.4-5.2
				s-4.6,1.8-4.6,5.2v14.4h-7.3V151.3z"/>
		</g>
	</g>
</g>
</svg>
