<?xml version="1.0" encoding="utf-8"?>
<!-- Generator: Adobe Illustrator 16.0.0, SVG Export Plug-In . SVG Version: 6.00 Build 0)  -->
<!DOCTYPE svg PUBLIC "-//W3C//DTD SVG 1.1//EN" "http://www.w3.org/Graphics/SVG/1.1/DTD/svg11.dtd">
<svg version="1.1" id="Layer_1" xmlns="http://www.w3.org/2000/svg" xmlns:xlink="http://www.w3.org/1999/xlink" x="0px" y="0px"
	 width="259px" height="64px" viewBox="0 0 259 64" enable-background="new 0 0 259 64" xml:space="preserve">
<g>
	<g>
		<path fill="#FFFFFF" d="M57.4,34.7c0,1.6,0.7,2.2,3.2,2.2c2.5,0,3.6-0.8,5.2-4.1h0.6L65.8,38H50.4v-0.6c2.3-0.6,2.5-1.1,2.5-3.2
			V21.4c0-1.8-0.4-2.3-2.5-2.8V18h9.5v0.6c-2,0.5-2.5,0.9-2.5,2.7V34.7z"/>
		<path fill="#FFFFFF" d="M72.8,35.2c0,1.3,0.7,2,2.1,2.2V38h-8.1v-0.6c1.7-0.3,2.2-0.8,2.2-2.5v-6.9c0-1.6-0.4-2-2.3-2.4v-0.6
			l5.6-0.5h0.6V35.2z M70.9,16.6c1.2,0,2.2,1,2.2,2.2c0,1.2-1,2.3-2.2,2.3s-2.3-1-2.3-2.3C68.6,17.6,69.6,16.6,70.9,16.6"/>
		<path fill="#FFFFFF" d="M81.2,27.9c1.3-1.2,2-1.5,3-1.5c2.3,0,3.8,2.2,3.8,5.3c0,4.2-1.9,5.9-4.8,5.9c-1.5,0-2.1-0.7-2.1-2.2V27.9
			z M81.2,16.6h-0.6l-5.3,0.4v0.6c1.2,0.2,2,0.8,2,1.9V38c2,0.4,3.9,0.5,6.3,0.5c6.3,0,8.7-3.3,8.7-7.2c0-3.8-2.7-6.7-6.2-6.7
			c-1.9,0-3.4,0.8-5,2.4V16.6z"/>
		<path fill="#FFFFFF" d="M98.1,29.6c0.1-2.5,1.2-4.1,2.8-4.1c1.6,0,2.7,1.7,2.9,4.1H98.1z M107.9,30.4c-0.5-3.6-3.1-5.8-6.8-5.8
			c-4.1,0-7.2,3-7.2,7c0,3.9,3,6.9,7.1,6.9c3.1,0,5.8-1.7,6.9-4.5h-0.6c-1.2,1.9-2.7,2.8-4.6,2.8c-2.4,0-4.8-2.2-4.6-6.4H107.9z"/>
		<path fill="#FFFFFF" d="M120.3,29.6c-1.1-1.1-2-1.7-2.9-1.7c-1.2,0-1.9,0.5-2.9,1.8V35c0,1.5,0.3,2,2.2,2.4V38h-8.2v-0.6
			c1.7-0.4,2.2-0.9,2.2-2.4v-6.8c0-1.6-0.7-2.4-2.4-2.5v-0.6l5.7-0.5h0.6v4.1h0.1c1.3-2.8,2.7-4.1,4.3-4.1c0.9,0,1.7,0.4,2.3,1.1
			L120.3,29.6z"/>
		<path fill="#FFFFFF" d="M142.2,25.1v0.6c1.6,0.3,2,1.4,0.9,4.1l-1.8,4.1l-2.7-5.6c-0.8-1.6-0.8-2.4,0.7-2.6v-0.6h-7.5h-0.2h-3.7
			v-5h-0.6c-1.8,2.3-4,4.4-5.6,5.4v0.7h2.3v8.3c0,2.9,2,4.1,4.4,4.1c1.9,0,3.2-0.7,4.2-2.3l-0.4-0.4c-0.6,0.7-1.2,1-1.9,1
			c-1.8,0-2.4-1.2-2.4-3.3v-7.4h3.5c1.9,0,2.4,0.7,3.3,2.4l4.7,10c-1.6,4.2-2.9,6-5.4,6c-0.5,0-0.9,0-1.8-0.3l-0.8,3.9
			c0.5,0.1,0.8,0.1,1.1,0.1c2.7,0,4.2-1.1,5.5-4.3l6.5-14.8c1.1-2.4,1.5-2.9,3.1-3.3v-0.6H142.2z"/>
		<path fill="#FFFFFF" d="M179.7,34.4c0.2,1.7,1.1,2.7,3.1,3.1v0.6h-9.9v-0.6c2.2-0.5,2.6-1.8,2.2-4.4l-1.7-11.4h-0.1l-6.5,16.4H166
			l-6.5-16.4h-0.1l-1.8,11.8c-0.3,2.3,0.1,3.9,2.4,4.1v0.6h-7.3v-0.6c2.2-0.1,3.1-1.3,3.6-4.4l2-13.1c-0.8-0.8-1.9-1.3-2.9-1.4v-0.6
			h7.2l5.3,13.2l5.3-13.2h6.8v0.6c-2.1,0.4-2.5,1.4-2.3,3.3L179.7,34.4z"/>
		<path fill="#FFFFFF" d="M184.3,28c0-1.4-0.5-2-2-2.2v-0.6l5.3-0.5h0.6v9.5c0,1.5,1,2.3,2.4,2.3c1.3,0,2.1-0.5,3.2-2.3v-6.4
			c0-1.1-0.7-1.7-2-1.9v-0.6l5.3-0.5h0.6V35c0,1.7,0.3,2.1,2.1,2.6v0.6l-5.9,0.5v-3.1h-0.1c-1.4,2.2-3.1,3.1-5.2,3.1
			c-2.7,0-4.3-1.5-4.3-3.9V28z"/>
		<path fill="#FFFFFF" d="M202.7,26.2h-2.3v-0.6c1.6-1,3.7-3,5.6-5.4h0.7v5h4.3v1h-4.3v7.4c0,2.1,0.5,3.3,2.4,3.3
			c0.7,0,1.3-0.3,1.9-1l0.4,0.4c-1,1.6-2.2,2.3-4.2,2.3c-2.4,0-4.4-1.2-4.4-4.1V26.2z"/>
		<path fill="#FFFFFF" d="M213.4,28c0-1.4-0.5-2-2-2.2v-0.6l5.3-0.5h0.6v9.5c0,1.5,1,2.3,2.4,2.3c1.3,0,2.1-0.5,3.2-2.3v-6.4
			c0-1.1-0.7-1.7-2-1.9v-0.6l5.3-0.5h0.6V35c0,1.7,0.3,2.1,2.1,2.6v0.6l-5.9,0.5v-3.1h-0.1c-1.4,2.2-3.1,3.1-5.1,3.1
			c-2.7,0-4.3-1.5-4.3-3.9V28z"/>
		<path fill="#FFFFFF" d="M237.7,35.9c-0.9,0.9-1.6,1.3-2.4,1.3c-1.1,0-1.8-0.9-1.8-2.3c0-1.7,1-2.5,4.2-3.9V35.9z M241.6,29.5
			c0-3.6-2.9-4.8-5.7-4.8c-3,0-5.1,1.6-5.8,4.4h0.5c0.8-1.4,2.1-2.2,3.9-2.2c2.3,0,3.2,1.1,3.2,3.4c-3.2,1.2-8.3,1.4-8.3,4.9
			c0,1.9,1.8,3.4,3.9,3.4c1.6,0,2.8-0.4,4.1-1.5l0.3-0.3c0.7,1.3,1.5,1.8,3.1,1.8c1.9,0,3-0.9,3.2-2.5h-0.5c-0.1,0.8-0.5,1.2-1,1.2
			c-0.6,0-0.8-0.5-0.8-1.7V29.5z"/>
		<path fill="#FFFFFF" d="M246.6,20.2c0-1.8-0.6-2.5-2.4-2.6v-0.6l5.7-0.4h0.6V35c0,1.7,0.4,2.1,2.3,2.6v0.6h-8.6v-0.6
			c1.9-0.3,2.4-0.9,2.4-2.6V20.2z"/>
		<path fill="#FFFFFF" d="M256.7,33.5c1.2,0,2.3,0.9,2.3,2.3c0,1.4-1.1,2.3-2.3,2.3c-1.2,0-2.3-0.9-2.3-2.3
			C254.5,34.5,255.6,33.5,256.7,33.5 M256.7,37.6c0.9,0,1.7-0.7,1.7-1.8c0-1.1-0.8-1.8-1.7-1.8c-1,0-1.7,0.7-1.7,1.8
			C255,36.9,255.8,37.6,256.7,37.6 M255.9,34.6h1c0.6,0,0.9,0.2,0.9,0.7c0,0.5-0.3,0.6-0.6,0.7l0.7,1.1h-0.5l-0.6-1.1h-0.3v1.1h-0.5
			V34.6z M256.3,35.7h0.4c0.3,0,0.5,0,0.5-0.4c0-0.3-0.3-0.3-0.5-0.3h-0.4V35.7z"/>
		<rect x="50.8" y="45.2" fill="#FFFFFF" width="78.5" height="0.8"/>
		<rect x="140" y="45.2" fill="#FFFFFF" width="113.2" height="0.8"/>
		<g>
			<path fill="#FFFFFF" d="M96,52.9H98v10.9H96V52.9z"/>
			<path fill="#FFFFFF" d="M104.1,52.9h1.9l4.6,7.7h0v-7.7h1.9v10.9h-1.9L106,56h0v7.7h-1.9V52.9z"/>
			<path fill="#FFFFFF" d="M118.8,60.5c0.8,1.1,2,1.6,3.3,1.6c1,0,2.3-0.3,2.3-1.4c0-0.9-0.8-1.1-2.3-1.4L121,59
				c-1.7-0.4-3.3-1-3.3-3c0-2.3,2.2-3.4,4.2-3.4c1.9,0,3.4,0.7,4.6,2.2l-1.7,1.3c-0.5-1-1.5-1.6-2.9-1.6c-1.2,0-2.1,0.4-2.1,1.2
				c0,0.9,1,1.1,2.3,1.4l1.3,0.3c1.6,0.4,3.2,1,3.2,3.1c0,2.7-2.5,3.6-4.8,3.6c-1.8,0-3.7-0.8-4.7-2.3L118.8,60.5z"/>
			<path fill="#FFFFFF" d="M140.7,60.4c0,2.2-1.8,3.6-4.4,3.6c-2.6,0-4.4-1.4-4.4-3.6v-7.5h2.1v7c0,1.3,0.6,2.2,2.3,2.2
				s2.3-0.8,2.3-2.2v-7h2.1V60.4z"/>
			<path fill="#FFFFFF" d="M146.6,52.9h4.6c2.3,0,3.7,1.4,3.7,3.3c0,2.4-1.6,3-2.2,3.2l2.4,4.4h-2.4l-2.1-4h-2v4h-2.1V52.9z
				 M148.6,57.9h2.2c1,0,1.8-0.6,1.8-1.6c0-1-0.7-1.6-2.1-1.6h-1.9V57.9z"/>
			<path fill="#FFFFFF" d="M162.7,52.9h2.4l3.6,10.9h-2.1l-0.6-2.1h-4.1l-0.6,2.1h-2.1L162.7,52.9z M164,54.8L164,54.8l-1.5,5h3
				L164,54.8z"/>
			<path fill="#FFFFFF" d="M173.4,52.9h1.9l4.6,7.7h0v-7.7h1.9v10.9h-1.9l-4.6-7.7h0v7.7h-1.9V52.9z"/>
			<path fill="#FFFFFF" d="M194.7,56.5c-0.2-1.2-1.2-2-2.4-2c-2.2,0-3.1,1.9-3.1,3.8s0.9,3.8,3.1,3.8c1.4,0,2.2-0.9,2.6-2.2l1.9,0.9
				c-0.9,2.2-2.3,3.2-4.5,3.2c-3.5,0-5.2-2.6-5.2-5.7s2-5.7,5.2-5.7c2.2,0,3.9,1.1,4.4,3.4L194.7,56.5z"/>
			<path fill="#FFFFFF" d="M201.2,52.9h7.7v1.9h-5.7v2.5h5.2V59h-5.2v2.8h6.1v1.9h-8.1V52.9z"/>
		</g>
	</g>
	<g>
		<path fill="#FFFFFF" d="M30.5,24.8c0.2,0.1,0.3,0.1,0.5,0.3l4.3-4.7c-1.4-1.5-2.7-2.4-4.6-3.3c-0.7-0.3-0.9-0.4-1.7-0.6l1,8.2
			C29.9,24.6,30.3,24.7,30.5,24.8z"/>
		<path fill="#FFFFFF" d="M16.2,17.1l7.6,7.4c0,0,0.3-0.1,0.4-0.2c0.2-0.1,0.5-0.1,0.5-0.1l0.7-8.4c-0.8-0.1-1.2-0.1-2.1-0.2
			c-1.9-0.1-4.5,0.3-6.3,1.1C16.5,16.9,16.2,17.1,16.2,17.1z"/>
		<g>
			<path fill="#FFFFFF" d="M11.7,50.7c0-3.2-0.7-7.7-1.2-9.7c-0.3-1.2-2.9-9-3-9.3c-0.1-0.2-0.1-2.3-0.2-4.1C6,31,5.4,35,5.4,39.3v0
				c0,6.9,1.8,13.1,5.2,17.5C11.6,54.2,11.6,52.2,11.7,50.7C11.7,50.7,11.7,50.7,11.7,50.7z"/>
			<path fill="#FFFFFF" d="M21,51.4c3-2.5,4.8-3.4,7.9-5c-4.7,1-10,4.1-12.9,7.8c-1.9,2.5-3.2,4.7-3.3,4.7c0.4,0.3,0.9,0.5,1.4,0.8
				C16.1,55.8,19.1,53,21,51.4z"/>
			<path fill="#FFFFFF" d="M14,18.3c-0.3,0.2-0.4,0.3-0.5,0.4c1.3,3.5,3.2,8,3.7,9.3c0.1,0.2,0.1,0.3,0.2,0.5l3.1,1.6l0,0
				c0,0,0-0.4,0-0.6c0-0.1,0.1-0.5,0.1-0.5l-6-11C14.3,18.1,14.3,18.2,14,18.3z"/>
			<path fill="#FFFFFF" d="M21.8,52.6c-3.2,3-5.3,6.8-6,7.7c0.3,0.1,0.7,0.2,1,0.3c6.9-12.3,17.9-15,24.2-15.3
				c0.1-0.3,0,0.1,0.1-0.5C36.8,44.7,28.7,46.1,21.8,52.6z"/>
			<path fill="#FFFFFF" d="M35.6,28.4c0,0,0.1,0.1,0.1,0.1l3.8-1.6c-0.5-1.1-1-2.3-1.6-3.3l-2.4,4.6C35.5,28.3,35.5,28.3,35.6,28.4z
				"/>
			<path fill="#FFFFFF" d="M37.4,34.4c-0.1,0.4-0.4,0.8-0.4,0.8l0.2,2.9l3.1,5.1l0.9,0.2c0.1-1.3,0.2-2.6,0.2-4
				c0-3.1-0.1-5.8-0.7-8.4l-3.1,2.6C37.6,33.5,37.5,34,37.4,34.4z"/>
		</g>
		<g>
			<path fill="#FFFFFF" d="M45.1,26l-7.7,5.9c-0.1-1-0.4-1.8-0.9-2.5L45.1,26C45.1,25.9,45.1,25.9,45.1,26
				C45.2,25.9,45.1,26,45.1,26z"/>
			<path fill="#FFFFFF" d="M16,18.5C16,18.5,16,18.5,16,18.5C16,18.5,16.1,18.5,16,18.5l6.6,6.7c-0.6,0.4-1.3,1.2-1.6,2L16,18.5z"/>
			<path fill="#FFFFFF" d="M19.8,31.1c0,0-0.2,0.4-0.2,0.8c0,0.5,0.1,0.9,0.1,0.9l-2-1.4c0-0.5,0-0.6,0-1c0,0-0.1-0.5-0.1-0.6
				L19.8,31.1z"/>
			<path fill="#FFFFFF" d="M16.7,46.1c-0.3,2.4-0.8,4.4-1.7,5.9c-0.6,0.9-2.1,2.8-2.7,3.6c0.6-1.2,1-4,1-6.2c0-1.4-0.5-4.6-0.1-6.7
				c0.4-2.2,1-3.5,2.6-4.9c0.8-0.7,2.3-1.6,4.6-1l1.8,3.4c-1-0.2-2.3,0-3.1,0.6C17.5,42,17,43.6,16.7,46.1z"/>
			<path fill="#FFFFFF" d="M16.9,50.7c0.4-1,1-3.8,1.2-4.8c0.2-1.2,0.4-3,1.9-4.2c0.7-0.6,1.9-0.7,2.4-0.5l2.1,4.2
				c0.2,0.4,0.8,0.6,1.2,0.6C23.6,46.6,18.7,48.9,16.9,50.7z"/>
			<path fill="#FFFFFF" d="M34.4,37.4c-0.3,0.5-0.2,1,0,1.4c0.2,0.4,1.3,2.4,1.3,2.4c0.3,0.9,0.6,1.4,0.9,2c0.6,0,1.2,0,1.9,0
				c-0.7-1.6-2.4-4.7-2.4-4.7l-0.2-2.5C35.5,36.2,34.7,36.8,34.4,37.4z"/>
			<path fill="#FFFFFF" d="M27.1,11.7L26,24c0.7-0.1,2.3,0.1,2.7,0.3L27.1,11.7C27.2,11.7,27.2,11.6,27.1,11.7
				C27.1,11.6,27.1,11.7,27.1,11.7z"/>
			<path fill="#FFFFFF" d="M10,14.3c0-0.1-0.2-0.5-0.3-0.6c-0.2-0.1-0.6-0.3-0.8-0.4c-0.2-0.1-0.6-0.5-0.7-0.5
				c-0.8,0-1.7-0.3-2.1-0.5c-0.3,0.7-0.1,1,0.2,1.3c0.2,0.2,0.9,0.4,1.5,0.5l0.2,3.7c0.2,0.3,0.7,0.4,1.2,0.5v0.1l-0.6,0.5
				c0,0.4,0.6,12.3,0.7,12.5c0.1,0.2,3,9,3.1,9.6c0.2-1,1.1-3.2,2.2-4.2c1.1-1,2.3-1.5,3.1-1.5c-0.2-0.2-1.1-2.3-1.1-2.5
				c0-0.2-0.4-2.8-0.5-2.9C15.9,29.7,10,14.4,10,14.3z"/>
			<path fill="#FFFFFF" d="M39.6,17.5L32,25.6c0.5,0.3,1.8,1.3,2.3,1.8L39.6,17.5C39.7,17.5,39.7,17.5,39.6,17.5
				C39.6,17.5,39.6,17.5,39.6,17.5z"/>
		</g>
		<path fill="#FFFFFF" d="M35.6,30.9c-0.1-0.5-1.3-1.9-3.3-3.4c-1.6-1.2-3.9-2.4-5.9-2.4c-3.2,0-4.6,2.2-4.8,3.4
			c-0.2,0.7-0.1,1.5,0,1.9c-0.5,0.4-0.7,0.8-0.8,1.3c-0.1,0.4,0,0.9,0.3,1.2c0-0.5,0.3-1,0.6-1.4c0.3-0.4,0.8-0.6,1.2-0.8l0.1,0.9
			c-0.4,0.2-0.9,0.8-1,1l0,1.5l1.1-0.7l0.2,0.4L23,36.4l0.6-0.1l1.1,0.5l-1.1,0.9V38c0,0,0.2-0.2,0.6-0.2c0.4,0,1.4,0.5,1.4,0.5
			l0,0.2h-0.4c-0.4,0-1.5,0-1.5,0c-0.1,0.3,0.2,0.5,0.3,0.6c0.3-0.1,0.5-0.2,0.7-0.2c0.1,0,0.5,0.1,0.8,0.1l-0.4,0.5
			c0,0-0.2,0.1-0.5,0.1c-0.2,0-0.4,0.2-0.4,0.4c0,0.2,0.1,0.8,0.1,0.8c0.2,0.8,1,0.7,1.1,0.7c0.5,0,2.3-0.7,2.3-0.7l-1.7,2.4
			l0.7,2.5c1.1-0.5,4.4-1.6,8.1-2.2c-0.4-0.7-0.5-0.9-0.9-1.9l-1.8-4.2l0.3-0.6c0.4,0.1,1-0.1,1.4-0.5c0.4-0.3,0.9-0.9,1.1-1.3
			c-0.3-0.1-0.5-0.1-0.7,0c-0.2,0.1-0.4,0.4-0.7,0.3c-0.3-0.1-0.2-0.5-0.1-0.8c0-0.3-0.4-0.3-0.7-0.1c-0.3,0.3-0.9,0.1-1.3-0.3
			c-0.4-0.4-2.4-2-3.1-2.4c-1-0.6-2.4-0.7-3.4-0.5c-0.6,0.1-1,0.4-1.2,0.3l-0.7-1.1l0.1-0.1c0.3,0.1,0.5,0.3,0.8,0.2
			c0.3-0.1,1.4-0.4,2.4-0.4c1.5,0,3.3,0.5,4.1,0.8c0,1,2,2.2,2.8,2.3c0.7,0.1,1.2-0.1,1.6-0.4l-1.9-1.6l1-1.3c0,0,1.6,1.5,1.8,1.8
			C35.8,31.4,35.7,31.2,35.6,30.9z M24.3,32.9c0,0,0.8-0.5,1.6-0.6c1.1-0.2,2.4,0.4,3.3,1.1L29,33.6l-1.3,0.3
			c-0.2-0.2-0.7-0.3-1.2-0.3c-0.5,0-0.8,0.2-0.8,0.2l0.2,0.4l-0.6,0.1c-0.3-0.3-0.7-0.7-1-0.8V32.9z M22.4,30
			c-0.3-1.1,0.6-2.2,1-2.6l0.6,1.4C23.5,29,22.8,29.6,22.4,30z M28.2,28.7c-0.6-0.4-2.5-0.3-3.4-0.1l-0.6-1.7
			c0.4-0.3,1.3-0.5,2.1-0.5s1.6,0.2,2.2,0.5L28.2,28.7z M32.1,30.4c-0.8-0.5-2.4-1.3-2.9-1.4l0.7-1.8c0.6,0.3,2.8,1.6,3.1,1.9
			L32.1,30.4z"/>
		<path fill="#FFFFFF" d="M6.2,11.3c1.7,0,2.5,0.7,2.9,1.1c0.1-0.6,0-1.1-0.6-1.5c-0.4-0.4-1.2-0.7-2.4-0.7c-0.8,0-1.6,0.2-2.1,0.6
			c-0.4,0.4-0.5,0.8-0.4,1.5C3.7,11.9,4.8,11.3,6.2,11.3z"/>
		<path fill="#FFFFFF" d="M2.7,2.6c0,0.6,0.1,1.3,0.4,1.7C3.3,4.5,3.7,4.9,4,4.9c0.4,0,0.8-0.8,1.8-0.8c0.6,0,1.1,0.9,1.6,1
			c0.4,0,0.6-0.4,1.1-0.4C8.9,4.6,9,4.8,9.2,5c0.1-0.3,0.4-0.6,0.9-1c0.7-0.5,2.9-1,3.9-1.8c0.5-0.4,0.6-1.2,0.4-1.8
			c-0.4,0.5-1.4,1-2.4,1.1c-0.5,0-1.7-0.2-2.1-0.4c0.2-0.4,0.3-0.8,0.1-1.2C9.8,0.2,8.4,0.4,7.8,0.4c-0.5,0-1.6-0.2-2.4-0.2
			C3.6,0.3,2.8,1.6,2.7,2.6z"/>
		<path fill="#FFFFFF" d="M3.8,15.6c-0.3,0-0.8,0.5-1.1,0.9c0.1,0.3,0.4,1,0.7,1.2c0.1-0.3,0.4-0.9,0.6-1c0.2-0.2,0.5-0.3,0.7-0.4
			C4.9,16.3,5,16.2,5,15.9s0-0.3-0.1-0.5c0.2,0,0.6,0,0.7-0.2c0.1-0.2,0.2-0.4,0.2-0.6s-0.1-0.3-0.3-0.3c-0.2,0-0.9,0-1.2,0
			c0,0,0.5-0.3,0.6-0.3c0.1-0.1,0.2-0.2,0.2-0.3c0-0.1,0-0.4-0.1-0.7c-0.7,0-2,0.7-2.4,1l0.3,0.7l-0.5,0c-0.1,0.3,0,0.9,0.1,1.1
			C3,15.6,3.5,15.6,3.8,15.6z"/>
		<path fill="#FFFFFF" d="M8.1,21.3c0-0.3-0.2-0.4-0.4-0.6c0.1-0.6,0.1-1.3,0.1-1.8c0-0.5-0.2-1-0.5-1.4C7,17.1,6.4,16.5,6,16.2
			c0,0.2-0.1,0.4-0.4,0.5c-0.2,0.1-1.2,0.7-1.2,0.7l0.2,3.2c0,0,0,0,0,0c0,0,0,0,0,0c-0.3,0.2-0.7,0.5-0.6,1c0.1,0.5,0.5,0.9,1.2,1
			c0.1,0,0.2,0,0.3,0.1l0-0.2c-0.1,0-0.2,0-0.3-0.1c-0.8-0.2-0.9-0.7-0.4-1c0.4-0.2,0.8-0.3,1.3-0.3c0.6,0,1.5,0.4,1.7,0.5
			C8.1,21.6,8.2,21.5,8.1,21.3z"/>
		<path fill="#FFFFFF" d="M12.1,10.2c0-0.4-0.6-1.5-0.6-1.9c0-0.4,0.1-0.6,0.1-1c-0.2,0-1.1,0.4-1.5,0.1C9.8,7.1,10,6.3,9.5,6.1
			C9,5.9,8.2,6.5,7.7,6.5c-0.5-0.1-1-0.8-1.5-0.8c-0.5,0-0.8,0.7-1.5,0.8C4.2,6.6,3.3,6.2,3,6.3c-0.4,0-0.6,0.3-0.8,0.7
			C2.1,7.3,2,7.4,1.5,7.5C1.2,7.6,0.7,7.3,0.4,7.4c0.1,0.1,0.2,0.4,0.3,0.8C0.7,9.1,0,9.5,0,11c0,1.6,1.7,2.4,1.7,2.4l0.2-0.1
			c-0.5-0.2-1.2-0.9-1.2-2c0-0.1,0-0.2,0-0.2c0.1-0.6,0.4-1,0.8-1.5c0,0,0,0,0,0c1-0.9,2.7-1.4,4.8-1.4c3.9,0.1,5.6,1.9,5.7,3.3
			C12.2,11.1,12.2,10.6,12.1,10.2z"/>
	</g>
</g>
</svg>
